<?xml version="1.0"?>
<svg xmlns:rdf="http://www.w3.org/1999/02/22-rdf-syntax-ns#" xmlns="http://www.w3.org/2000/svg" xmlns:cc="http://creativecommons.org/ns#" xmlns:dc="http://purl.org/dc/elements/1.1/" xmlns:svg="http://www.w3.org/2000/svg" id="svg2" viewBox="0 0 266.6 232.03" version="1.1">
  <g id="layer1" transform="translate(-301.87 -485.83)">
    <g id="g2839" stroke="#000">
      <path id="path2858" stroke-width="1.1093px" fill="#a28975" d="m326.74 570.73 1.1885 139.85c0.43625 8.8679 11.479 8.0785 14.064 2.7732l0.69329-1.7828 0.0991-141.23-16.045 0.39616-0.00003-0.00001z"/>
      <path id="path2864" stroke-width="1.1093px" fill="none" d="m303.76 550.12 154.82 1.6642v-10.776h-155.62l0.79234 9.1119z"/>
      <path id="path2858-9" stroke-width="1.1093px" fill="#a28975" d="m437.56 511.5 1.1885 139.85c0.43624 8.8679 11.479 8.0785 14.064 2.7732l0.6933-1.7828 0.0991-141.23-16.045 0.39617-0.00002-0.00001z"/>
      <path id="path2858-1" stroke-width="1.1093px" fill="#a28975" d="m444.7 570.73 1.1885 139.85c0.43625 8.8679 11.479 8.0785 14.064 2.7732l0.69329-1.7828 0.0991-141.23-16.045 0.39616-0.00003-0.00001z"/>
      <path id="path2860" stroke-width="1.1093px" fill="#a28975" d="m317.23 548.94 0.79233 24.563 137.07 0.39616v-24.562l-137.87-0.39617z"/>
      <path id="path2858-4" stroke-width="1.1093px" fill="#a28975" d="m541.36 511.5 1.1885 139.85c0.43624 8.8679 11.479 8.0785 14.064 2.7732l0.6933-1.7828 0.0991-141.23-16.045 0.39617-0.00002-0.00001z"/>
      <path id="path2862" stroke-width="1.1093px" fill="#a28975" d="m455.81 573.7 103.63-58.613v-20.423l-104.04 54.865 0.0861 23.576 0.32187 0.59425h-0.00002z"/>
      <path id="path3682" stroke-width="1.1093px" fill="#a28975" d="m302.77 540.02 0.99042 9.9042 155.5 1.7828 108.35-57.246v-7.7253l-108.55 54.275-156.29-0.99043z"/>
      <path id="path2866" stroke-width="1.1093px" fill="none" d="m459.45 541.03 107.98-53.941 0.19808 7.1764-107.72 57.105-0.46087-10.341z"/>
      <path id="path2868" stroke-width="1.1056px" fill="#a28975" d="m302.42 540.26 136.3-53.883 129.19 0.17335-109.03 54.105-156.47-0.39617z"/>
    </g>
  </g>
  <metadata>
    <rdf:RDF>
      <cc:Work>
        <dc:format>image/svg+xml</dc:format>
        <dc:type rdf:resource="http://purl.org/dc/dcmitype/StillImage"/>
        <cc:license rdf:resource="http://creativecommons.org/licenses/publicdomain/"/>
        <dc:publisher>
          <cc:Agent rdf:about="http://openclipart.org/">
            <dc:title>Openclipart</dc:title>
          </cc:Agent>
        </dc:publisher>
        <dc:title>Student desk</dc:title>
        <dc:date>2010-06-02T21:59:18</dc:date>
        <dc:description>A student desk.</dc:description>
        <dc:source>http://openclipart.org/detail/64165/student-desk-by-laobc</dc:source>
        <dc:creator>
          <cc:Agent>
            <dc:title>laobc</dc:title>
          </cc:Agent>
        </dc:creator>
        <dc:subject>
          <rdf:Bag>
            <rdf:li>brown</rdf:li>
            <rdf:li>clip art</rdf:li>
            <rdf:li>clipart</rdf:li>
            <rdf:li>desk</rdf:li>
            <rdf:li>furniture</rdf:li>
            <rdf:li>school</rdf:li>
            <rdf:li>table</rdf:li>
          </rdf:Bag>
        </dc:subject>
      </cc:Work>
      <cc:License rdf:about="http://creativecommons.org/licenses/publicdomain/">
        <cc:permits rdf:resource="http://creativecommons.org/ns#Reproduction"/>
        <cc:permits rdf:resource="http://creativecommons.org/ns#Distribution"/>
        <cc:permits rdf:resource="http://creativecommons.org/ns#DerivativeWorks"/>
      </cc:License>
    </rdf:RDF>
  </metadata>
</svg>
